<svg xmlns="http://www.w3.org/2000/svg" xmlns:xlink="http://www.w3.org/1999/xlink" width="500" zoomAndPan="magnify" viewBox="0 0 375 373.499994" height="498" preserveAspectRatio="xMidYMid meet" version="1.0"><defs><clipPath id="08d3c41d7f"><path d="M 35 165 L 206 165 L 206 338 L 35 338 Z M 35 165 " clip-rule="nonzero"/></clipPath><clipPath id="db82f6bea4"><path d="M 0.253906 191.925781 L 121.261719 80.082031 L 288.011719 260.496094 L 167.003906 372.339844 Z M 0.253906 191.925781 " clip-rule="nonzero"/></clipPath><clipPath id="f055fe9503"><path d="M 0.253906 191.925781 L 121.261719 80.082031 L 288.011719 260.496094 L 167.003906 372.339844 Z M 0.253906 191.925781 " clip-rule="nonzero"/></clipPath><clipPath id="396c2e3c03"><path d="M 122 85 L 293 85 L 293 257 L 122 257 Z M 122 85 " clip-rule="nonzero"/></clipPath><clipPath id="e48d9ab828"><path d="M 87.164062 111.597656 L 208.175781 -0.246094 L 374.925781 180.164062 L 253.914062 292.011719 Z M 87.164062 111.597656 " clip-rule="nonzero"/></clipPath><clipPath id="f164a9772c"><path d="M 87.164062 111.597656 L 208.175781 -0.246094 L 374.925781 180.164062 L 253.914062 292.011719 Z M 87.164062 111.597656 " clip-rule="nonzero"/></clipPath></defs><g clip-path="url(#08d3c41d7f)"><g clip-path="url(#db82f6bea4)"><g clip-path="url(#f055fe9503)"><path fill="#7ed957" d="M 205.605469 171.875 L 58.753906 165.347656 C 30.386719 164.089844 25.597656 219.34375 59.207031 220.253906 L 150.585938 222.730469 L 143.605469 314.679688 C 141.480469 342.679688 196.089844 345.636719 197.648438 317.179688 Z M 205.605469 171.875 " fill-opacity="1" fill-rule="nonzero"/></g></g></g><g clip-path="url(#396c2e3c03)"><g clip-path="url(#e48d9ab828)"><g clip-path="url(#f164a9772c)"><path fill="#7ed957" d="M 292.519531 91.546875 L 145.664062 85.019531 C 117.300781 83.757812 112.511719 139.011719 146.117188 139.925781 L 237.496094 142.398438 L 230.519531 234.347656 C 228.394531 262.347656 283 265.304688 284.558594 236.847656 Z M 292.519531 91.546875 " fill-opacity="1" fill-rule="nonzero"/></g></g></g></svg>