<svg xmlns="http://www.w3.org/2000/svg" xmlns:xlink="http://www.w3.org/1999/xlink" width="635" zoomAndPan="magnify" viewBox="0 0 476.25 263.250001" height="351" preserveAspectRatio="xMidYMid meet" version="1.0"><defs><clipPath id="579ced487b"><path d="M 0.300781 0 L 475.199219 0 L 475.199219 262.503906 L 0.300781 262.503906 Z M 0.300781 0 " clip-rule="nonzero"/></clipPath><clipPath id="112fc9f05e"><path d="M 0.300781 0 L 194.25 0 L 194.25 193.949219 L 0.300781 193.949219 Z M 0.300781 0 " clip-rule="nonzero"/></clipPath><clipPath id="90fcb38778"><path d="M 97.277344 0 C 43.71875 0 0.300781 43.417969 0.300781 96.972656 C 0.300781 150.53125 43.71875 193.949219 97.277344 193.949219 C 150.835938 193.949219 194.25 150.53125 194.25 96.972656 C 194.25 43.417969 150.835938 0 97.277344 0 Z M 97.277344 0 " clip-rule="nonzero"/></clipPath><clipPath id="2d9a9d352a"><path d="M 281.1875 0 L 475.136719 0 L 475.136719 193.949219 L 281.1875 193.949219 Z M 281.1875 0 " clip-rule="nonzero"/></clipPath><clipPath id="5e7df49c31"><path d="M 378.164062 0 C 324.605469 0 281.1875 43.417969 281.1875 96.972656 C 281.1875 150.53125 324.605469 193.949219 378.164062 193.949219 C 431.71875 193.949219 475.136719 150.53125 475.136719 96.972656 C 475.136719 43.417969 431.71875 0 378.164062 0 Z M 378.164062 0 " clip-rule="nonzero"/></clipPath><clipPath id="2de6d5d946"><path d="M 0.300781 0 L 459 0 L 459 262.503906 L 0.300781 262.503906 Z M 0.300781 0 " clip-rule="nonzero"/></clipPath><clipPath id="f7ba586565"><path d="M 15 0 L 475.199219 0 L 475.199219 262.503906 L 15 262.503906 Z M 15 0 " clip-rule="nonzero"/></clipPath><clipPath id="cd7fba2320"><rect x="0" width="476" y="0" height="263"/></clipPath></defs><g clip-path="url(#579ced487b)"><g transform="matrix(1, 0, 0, 1, 0.000000000000000056, 0.000000000000027431)"><g clip-path="url(#cd7fba2320)"><g clip-path="url(#112fc9f05e)"><g clip-path="url(#90fcb38778)"><path stroke-linecap="butt" transform="matrix(1.190096, 0, 0, 1.190096, 0.302556, 0.00000997159)" fill="none" stroke-linejoin="miter" d="M 81.484831 -0.00000837881 C 36.481248 -0.00000837881 -0.00149119 36.48273 -0.00149119 81.483032 C -0.00149119 126.486615 36.481248 162.969354 81.484831 162.969354 C 126.488415 162.969354 162.967871 126.486615 162.967871 81.483032 C 162.967871 36.48273 126.488415 -0.00000837881 81.484831 -0.00000837881 Z M 81.484831 -0.00000837881 " stroke="#d3af37" stroke-width="38.961472" stroke-opacity="1" stroke-miterlimit="4"/></g></g><g clip-path="url(#2d9a9d352a)"><g clip-path="url(#5e7df49c31)"><path stroke-linecap="butt" transform="matrix(1.190096, 0, 0, 1.190096, 281.187916, 0.00000997159)" fill="none" stroke-linejoin="miter" d="M 81.485972 -0.00000837881 C 36.482389 -0.00000837881 -0.000349934 36.48273 -0.000349934 81.483032 C -0.000349934 126.486615 36.482389 162.969354 81.485972 162.969354 C 126.486274 162.969354 162.969012 126.486615 162.969012 81.483032 C 162.969012 36.48273 126.486274 -0.00000837881 81.485972 -0.00000837881 Z M 81.485972 -0.00000837881 " stroke="#d3af37" stroke-width="38.961472" stroke-opacity="1" stroke-miterlimit="4"/></g></g><g clip-path="url(#2de6d5d946)"><path stroke-linecap="butt" transform="matrix(0.841525, 0.841525, -0.841525, 0.841525, 163.114066, 136.726424)" fill="none" stroke-linejoin="miter" d="M -0.000384042 15.499754 L 118.441575 15.499754 " stroke="#d3af37" stroke-width="31" stroke-opacity="1" stroke-miterlimit="4"/></g><g clip-path="url(#f7ba586565)"><path stroke-linecap="butt" transform="matrix(0.841495, -0.841555, 0.841555, 0.841495, 211.474392, 236.390201)" fill="none" stroke-linejoin="miter" d="M 0.000487448 15.500746 L 118.437806 15.500313 " stroke="#d3af37" stroke-width="31" stroke-opacity="1" stroke-miterlimit="4"/></g></g></g></g></svg>