<svg xmlns="http://www.w3.org/2000/svg" xmlns:xlink="http://www.w3.org/1999/xlink" width="635" zoomAndPan="magnify" viewBox="0 0 476.25 263.250001" height="351" preserveAspectRatio="xMidYMid meet" version="1.0"><defs><clipPath id="e386525e0b"><path d="M 0.300781 0 L 475.199219 0 L 475.199219 262.503906 L 0.300781 262.503906 Z M 0.300781 0 " clip-rule="nonzero"/></clipPath><clipPath id="d1c0a24070"><path d="M 0.300781 0 L 194.191406 0 L 194.191406 193.886719 L 0.300781 193.886719 Z M 0.300781 0 " clip-rule="nonzero"/></clipPath><clipPath id="38e3ec7ee4"><path d="M 97.246094 0 C 43.707031 0 0.300781 43.402344 0.300781 96.945312 C 0.300781 150.484375 43.707031 193.886719 97.246094 193.886719 C 150.785156 193.886719 194.191406 150.484375 194.191406 96.945312 C 194.191406 43.402344 150.785156 0 97.246094 0 Z M 97.246094 0 " clip-rule="nonzero"/></clipPath><clipPath id="1c87bdcbce"><path d="M 281.097656 0 L 474.984375 0 L 474.984375 193.886719 L 281.097656 193.886719 Z M 281.097656 0 " clip-rule="nonzero"/></clipPath><clipPath id="929299992b"><path d="M 378.042969 0 C 324.503906 0 281.097656 43.402344 281.097656 96.945312 C 281.097656 150.484375 324.503906 193.886719 378.042969 193.886719 C 431.582031 193.886719 474.984375 150.484375 474.984375 96.945312 C 474.984375 43.402344 431.582031 0 378.042969 0 Z M 378.042969 0 " clip-rule="nonzero"/></clipPath><clipPath id="d2ca511001"><path d="M 0.300781 0 L 459 0 L 459 262.503906 L 0.300781 262.503906 Z M 0.300781 0 " clip-rule="nonzero"/></clipPath><clipPath id="3bbcd5e7d3"><path d="M 15 0 L 475.199219 0 L 475.199219 262.503906 L 15 262.503906 Z M 15 0 " clip-rule="nonzero"/></clipPath><clipPath id="8ea2bb3766"><rect x="0" width="476" y="0" height="263"/></clipPath></defs><g clip-path="url(#e386525e0b)"><g transform="matrix(1, 0, 0, 1, 0.000000000000000056, 0.000000000000027431)"><g clip-path="url(#8ea2bb3766)"><g clip-path="url(#d1c0a24070)"><g clip-path="url(#38e3ec7ee4)"><path stroke-linecap="butt" transform="matrix(1.189719, 0, 0, 1.189719, 0.302556, 0.00000997159)" fill="none" stroke-linejoin="miter" d="M 81.484397 -0.00000838147 C 36.482963 -0.00000838147 -0.00149167 36.481163 -0.00149167 81.48588 C -0.00149167 126.487314 36.482963 162.968485 81.484397 162.968485 C 126.485831 162.968485 162.970285 126.487314 162.970285 81.48588 C 162.970285 36.481163 126.485831 -0.00000838147 81.484397 -0.00000838147 Z M 81.484397 -0.00000838147 " stroke="#292d69" stroke-width="38.97382" stroke-opacity="1" stroke-miterlimit="4"/></g></g><g clip-path="url(#1c87bdcbce)"><g clip-path="url(#929299992b)"><path stroke-linecap="butt" transform="matrix(1.189719, 0, 0, 1.189719, 281.098933, 0.00000997159)" fill="none" stroke-linejoin="miter" d="M 81.484815 -0.00000838147 C 36.483381 -0.00000838147 -0.0010733 36.481163 -0.0010733 81.48588 C -0.0010733 126.487314 36.483381 162.968485 81.484815 162.968485 C 126.486249 162.968485 162.96742 126.487314 162.96742 81.48588 C 162.96742 36.481163 126.486249 -0.00000838147 81.484815 -0.00000838147 Z M 81.484815 -0.00000838147 " stroke="#292d69" stroke-width="38.97382" stroke-opacity="1" stroke-miterlimit="4"/></g></g><g clip-path="url(#d2ca511001)"><path stroke-linecap="butt" transform="matrix(0.841258, 0.841258, -0.841258, 0.841258, 163.062474, 136.6831)" fill="none" stroke-linejoin="miter" d="M 0.000308834 15.499751 L 118.442653 15.499751 " stroke="#292d69" stroke-width="31" stroke-opacity="1" stroke-miterlimit="4"/></g><g clip-path="url(#3bbcd5e7d3)"><path stroke-linecap="butt" transform="matrix(0.841229, -0.841288, 0.841288, 0.841229, 211.40749, 236.315312)" fill="none" stroke-linejoin="miter" d="M 0.000382999 15.501709 L 118.435771 15.498954 " stroke="#292d69" stroke-width="31" stroke-opacity="1" stroke-miterlimit="4"/></g></g></g></g></svg>